<?xml version="1.0" encoding="utf-8"?>
<!-- Generator: Adobe Illustrator 24.0.2, SVG Export Plug-In . SVG Version: 6.00 Build 0)  -->
<svg version="1.1" id="레이어_1" xmlns="http://www.w3.org/2000/svg" xmlns:xlink="http://www.w3.org/1999/xlink" x="0px"
	 y="0px" viewBox="0 0 78 52" style="enable-background:new 0 0 78 52;" xml:space="preserve">
<style type="text/css">
	.st0{fill:#03B37C;}
	.st1{fill:#ED3B18;}
	.st2{fill:#CCCCCC;}
</style>
<rect x="56.9" y="19.2" class="st0" width="8" height="3"/>
<rect x="66.9" y="19.2" class="st1" width="8" height="3"/>
<rect y="0" class="st2" width="0.8" height="52"/>
<rect x="77.2" y="0" class="st2" width="0.8" height="52"/>
<rect x="38.6" y="-38.6" transform="matrix(6.123234e-17 -1 1 6.123234e-17 38.6 39.4)" class="st2" width="0.8" height="78"/>
<rect x="38.6" y="12.6" transform="matrix(6.123234e-17 -1 1 6.123234e-17 -12.6 90.6)" class="st2" width="0.8" height="78"/>
<rect x="41.8" y="0" class="st2" width="0.8" height="38.9"/>
<rect x="53.7" y="0" class="st2" width="0.8" height="38.9"/>
<rect x="12.4" y="0" class="st2" width="0.8" height="38.7"/>
<rect x="38.6" y="-0.5" transform="matrix(6.123234e-17 -1 1 6.123234e-17 0.469 77.531)" class="st2" width="0.8" height="78"/>
<rect x="47.5" y="14.1" transform="matrix(6.123234e-17 -1 1 6.123234e-17 27.6172 68.2749)" class="st2" width="0.8" height="12.4"/>
</svg>
